<svg width="18" height="20" viewBox="0 0 18 20" fill="none" xmlns="http://www.w3.org/2000/svg">
<g clip-path="url(#clip0_1_2)" filter="url(#filter0_d_1_2)">
<path d="M16.6014 11.8156L9.81565 18.6013C9.5527 18.8685 9.20494 19 8.85717 19C8.5094 19 8.16248 18.8675 7.89784 18.6024L1.11212 11.8167C0.58199 11.2865 0.58199 10.4277 1.11212 9.89759C1.64226 9.36746 2.50107 9.36746 3.03121 9.89759L7.50003 14.3687V1.35714C7.50003 0.60689 8.10777 0.0381622 8.819 0.0381622C9.53023 0.0381622 10.2143 0.60689 10.2143 1.35714V14.3687L14.6844 9.89865C15.2145 9.36852 16.0734 9.36852 16.6035 9.89865C17.1336 10.4288 17.1315 11.2855 16.6014 11.8156Z" fill="black"/>
</g>
<defs>
<filter id="filter0_d_1_2" x="0.544667" y="0" width="16.625" height="19.3393" filterUnits="userSpaceOnUse" color-interpolation-filters="sRGB">
<feFlood flood-opacity="0" result="BackgroundImageFix"/>
<feColorMatrix in="SourceAlpha" type="matrix" values="0 0 0 0 0 0 0 0 0 0 0 0 0 0 0 0 0 0 127 0" result="hardAlpha"/>
<feOffset dy="0.169643"/>
<feGaussianBlur stdDeviation="0.0848214"/>
<feComposite in2="hardAlpha" operator="out"/>
<feColorMatrix type="matrix" values="0 0 0 0 0 0 0 0 0 0 0 0 0 0 0 0 0 0 0.25 0"/>
<feBlend mode="normal" in2="BackgroundImageFix" result="effect1_dropShadow_1_2"/>
<feBlend mode="normal" in="SourceGraphic" in2="effect1_dropShadow_1_2" result="shape"/>
</filter>
<clipPath id="clip0_1_2">
<rect width="16.2857" height="19" fill="white" transform="translate(0.71431)"/>
</clipPath>
</defs>
</svg>
