<svg width="217" height="110" viewBox="0 0 217 110" fill="none" xmlns="http://www.w3.org/2000/svg">
<path d="M144.546 1.01499L144.445 1.72549C143.676 4.5168 141.857 6.90265 139.37 8.38389C138.13 9.18186 136.701 9.63715 135.228 9.70339C133.759 10.0354 132.228 9.96879 130.793 9.51054C130.036 9.32476 129.305 9.04159 128.621 8.66809C128.365 9.32991 128.053 9.96836 127.687 10.5763C127.105 11.4909 126.425 12.3385 125.657 13.1036C125.271 13.4284 124.865 13.7431 124.449 14.0374C124.076 14.3584 123.686 14.6599 123.282 14.9408L123.048 15.0727C122.155 15.5221 121.233 15.9121 120.288 16.24L119.993 16.3212C119.313 16.4836 117.608 16.6764 116.948 16.7373H116.603C114.767 16.7389 112.96 16.2818 111.346 15.4077C111.094 15.8128 110.805 16.1934 110.483 16.5445C109.704 17.7501 108.632 18.7384 107.367 19.4169C106.127 20.2149 104.698 20.6702 103.226 20.7364C101.752 21.065 100.217 20.9949 98.7798 20.5334C98.6174 20.5334 96.2119 19.5184 96.0596 19.3966C95.2463 18.8449 94.4667 18.245 93.7251 17.6001C93.309 17.1636 92.9943 16.6967 92.5985 16.1892C92.0309 15.5092 91.5216 14.7826 91.076 14.0171C90.9237 13.7532 90.7917 13.4792 90.6598 13.2153C89.5555 13.5383 88.4101 13.699 87.2595 13.6923C79.4136 13.6923 75.8713 7.03394 76.6122 0.99469H1.015C1.015 15.0956 3.79239 29.0585 9.18858 42.086C14.5848 55.1136 22.4941 66.9507 32.465 76.9216C42.4358 86.8924 54.2729 94.8018 67.3005 100.198C80.3281 105.594 94.2909 108.372 108.392 108.372C122.493 108.372 136.456 105.594 149.483 100.198C162.511 94.8018 174.348 86.8924 184.319 76.9216C194.29 66.9507 202.199 55.1136 207.595 42.086C212.991 29.0585 215.769 15.0956 215.769 0.99469L144.546 1.01499Z" fill="#68E1FD"/>
<path d="M108.392 109.417C79.6535 109.382 52.1024 97.9496 31.7822 77.6276C11.4621 57.3056 0.0322328 29.7533 0 1.015C0 0.745805 0.106936 0.487635 0.297286 0.297286C0.487635 0.106936 0.745805 0 1.015 0H76.5716C76.7157 0.000182493 76.8581 0.0310531 76.9894 0.0905564C77.1206 0.15006 77.2377 0.236835 77.3328 0.345104C77.4282 0.453712 77.4993 0.581428 77.5413 0.719712C77.5833 0.857996 77.5953 1.00366 77.5764 1.14695C77.3694 2.66165 77.4799 4.20287 77.901 5.6725C78.3222 7.14213 79.0447 8.50798 80.0226 9.6831C80.9293 10.6825 82.0426 11.4725 83.2853 11.9983C84.5281 12.5241 85.8703 12.7732 87.2189 12.7281C88.27 12.7354 89.3165 12.5884 90.3248 12.2917C90.5535 12.2234 90.7989 12.2379 91.0179 12.3325C91.2369 12.4272 91.4156 12.596 91.5226 12.8093L91.9285 13.5908C92.2788 14.2042 92.683 14.785 93.1364 15.3265L93.6642 16.0167C93.897 16.3417 94.1478 16.6534 94.4153 16.9505C95.0915 17.5236 95.7961 18.0622 96.5265 18.5644C96.7295 18.6659 98.7494 19.5185 99.0234 19.5794C100.296 19.9933 101.656 20.0564 102.962 19.7621H103.134C104.432 19.7104 105.692 19.307 106.778 18.5948C107.918 17.9962 108.886 17.1157 109.59 16.037C109.621 15.9886 109.659 15.9443 109.701 15.905C109.979 15.5883 110.231 15.2488 110.452 14.89C110.59 14.6764 110.804 14.5223 111.05 14.4584C111.296 14.3945 111.557 14.4254 111.782 14.545C113.249 15.3439 114.892 15.7627 116.563 15.7629H116.816C117.527 15.702 119.161 15.5092 119.75 15.3671L119.973 15.3062C120.863 15 121.731 14.6338 122.571 14.21L122.764 14.0983C123.079 13.875 123.444 13.5908 123.779 13.2965C124.114 13.0021 124.591 12.6875 124.957 12.383C125.64 11.6848 126.243 10.9119 126.753 10.079C127.095 9.52186 127.384 8.93398 127.616 8.323C127.669 8.18971 127.75 8.06922 127.853 7.96949C127.957 7.86976 128.08 7.79307 128.215 7.74445C128.35 7.69504 128.494 7.67491 128.638 7.68541C128.781 7.69591 128.921 7.73679 129.047 7.80535C129.649 8.14079 130.295 8.39019 130.965 8.5463C132.25 8.96548 133.623 9.03555 134.944 8.7493H135.127C136.419 8.69008 137.672 8.29094 138.761 7.5922C140.202 6.6584 142.739 4.63855 143.44 1.5631L143.511 0.94395C143.543 0.698223 143.664 0.472768 143.851 0.310102C144.038 0.147435 144.278 0.0588034 144.526 0.0609053H215.748C216.018 0.0609053 216.276 0.167842 216.466 0.358191C216.656 0.548541 216.763 0.806711 216.763 1.07591C216.715 29.8002 205.281 57.3337 184.967 77.642C164.653 97.9503 137.116 109.377 108.392 109.417V109.417ZM2.03 2.03C2.03 30.2389 13.236 57.2925 33.1827 77.2392C53.1294 97.1859 80.1829 108.392 108.392 108.392C136.601 108.392 163.654 97.1859 183.601 77.2392C203.548 57.2925 214.754 30.2389 214.754 2.03H145.409C144.563 5.05568 142.581 7.63763 139.877 9.2365C138.512 10.1176 136.942 10.6284 135.32 10.7184C133.702 11.064 132.023 10.9801 130.448 10.4748C129.984 10.365 129.529 10.2191 129.088 10.0383C128.905 10.4037 128.712 10.7692 128.509 11.1041C127.91 12.0895 127.194 12.9993 126.378 13.8142C126.359 13.8427 126.335 13.867 126.307 13.8852C125.901 14.2202 125.484 14.545 125.048 14.9002C124.673 15.2266 124.28 15.5316 123.871 15.8137L123.536 16.0066C122.588 16.4866 121.608 16.9004 120.602 17.2448L120.237 17.3464C119.167 17.5542 118.086 17.7033 116.999 17.7929H116.593C114.889 17.8103 113.2 17.4643 111.64 16.7779C111.519 16.9401 111.391 17.0959 111.254 17.2448C110.383 18.5636 109.197 19.6449 107.803 20.3914C106.458 21.2523 104.912 21.7457 103.317 21.8225C101.696 22.1662 100.015 22.0858 98.4347 21.5891V21.5891C97.8359 21.4064 95.613 20.4218 95.5115 20.3609C94.6125 19.7671 93.7577 19.109 92.9537 18.3918C92.6252 18.0399 92.32 17.667 92.0402 17.2753L91.5327 16.6156C91.0122 15.9797 90.547 15.3006 90.1422 14.5856L90.0813 14.4841C89.141 14.6888 88.1813 14.7909 87.2189 14.7885C85.5837 14.8424 83.9563 14.5389 82.4504 13.899C80.9445 13.2591 79.5964 12.2984 78.5001 11.0838C76.3779 8.58275 75.289 5.36677 75.4551 2.09091L2.03 2.03Z" fill="#093F68"/>
<path d="M144.546 1.01499L144.445 1.72549C143.676 4.5168 141.857 6.90265 139.37 8.38389C138.13 9.18186 136.701 9.63715 135.228 9.70339C133.759 10.0354 132.228 9.96879 130.793 9.51054C130.036 9.32476 129.305 9.04159 128.621 8.66809C128.365 9.32991 128.053 9.96836 127.687 10.5763C127.105 11.4909 126.425 12.3385 125.657 13.1036C125.271 13.4284 124.865 13.7431 124.449 14.0374C124.076 14.3584 123.686 14.6599 123.282 14.9408L123.048 15.0727C122.155 15.5221 121.233 15.9121 120.288 16.24L119.993 16.3212C119.313 16.4836 117.608 16.6764 116.948 16.7373H116.603C114.767 16.7389 112.96 16.2818 111.346 15.4077C111.094 15.8128 110.805 16.1934 110.483 16.5445C109.704 17.7501 108.632 18.7384 107.367 19.4169C106.127 20.2149 104.698 20.6702 103.226 20.7364C101.752 21.065 100.217 20.9949 98.7798 20.5334C98.6174 20.5334 96.2119 19.5184 96.0596 19.3966C95.2463 18.8449 94.4667 18.245 93.7251 17.6001C93.309 17.1636 92.9943 16.6967 92.5985 16.1892C92.0309 15.5092 91.5216 14.7826 91.076 14.0171C90.9237 13.7532 90.7917 13.4792 90.6598 13.2153C89.5555 13.5383 88.4101 13.699 87.2595 13.6923C79.4136 13.6923 75.8713 7.03394 76.6122 0.99469H17.2043C17.2043 25.1791 26.8115 48.3731 43.9125 65.4741C61.0135 82.5751 84.2074 92.1823 108.392 92.1823C132.576 92.1823 155.77 82.5751 172.871 65.4741C189.972 48.3731 199.579 25.1791 199.579 0.99469L144.546 1.01499Z" fill="white"/>
<path d="M108.392 93.2176C83.9464 93.1907 60.51 83.4679 43.2244 66.1824C25.9389 48.8969 16.2161 25.4604 16.1893 1.015C16.1893 0.745805 16.2962 0.487635 16.4865 0.297286C16.6769 0.106936 16.9351 0 17.2043 0H76.5716C76.7157 0.000182493 76.8581 0.0310531 76.9894 0.0905564C77.1206 0.15006 77.2377 0.236835 77.3328 0.345104C77.4282 0.453712 77.4993 0.581428 77.5413 0.719712C77.5833 0.857996 77.5953 1.00366 77.5764 1.14695C77.3694 2.66165 77.4799 4.20287 77.901 5.6725C78.3222 7.14213 79.0447 8.50798 80.0226 9.6831C80.9293 10.6825 82.0426 11.4725 83.2853 11.9983C84.5281 12.5241 85.8703 12.7732 87.2189 12.7281C88.27 12.7354 89.3165 12.5884 90.3248 12.2917C90.5535 12.2234 90.7989 12.2379 91.0179 12.3325C91.2369 12.4272 91.4156 12.596 91.5226 12.8093L91.9285 13.5908C92.2788 14.2042 92.683 14.785 93.1364 15.3265L93.6642 16.0167C93.897 16.3417 94.1478 16.6534 94.4153 16.9505C95.0915 17.5236 95.7961 18.0622 96.5265 18.5644C96.7295 18.6659 98.7494 19.5185 99.0234 19.5794C100.296 19.9933 101.656 20.0564 102.962 19.7621H103.134C104.432 19.7104 105.692 19.307 106.778 18.5948C107.918 17.9962 108.886 17.1157 109.59 16.037C109.621 15.9886 109.659 15.9443 109.701 15.905C109.979 15.5883 110.231 15.2488 110.452 14.89C110.59 14.6764 110.804 14.5223 111.05 14.4584C111.296 14.3945 111.557 14.4254 111.782 14.545C113.249 15.3439 114.892 15.7627 116.563 15.7629H116.816C117.527 15.702 119.161 15.5092 119.75 15.3671L119.973 15.3062C120.863 15 121.731 14.6338 122.571 14.21L122.764 14.0983C123.079 13.875 123.444 13.5908 123.779 13.2965C124.114 13.0021 124.591 12.6875 124.957 12.383C125.64 11.6848 126.243 10.9119 126.753 10.079C127.095 9.52186 127.384 8.93398 127.616 8.323C127.669 8.18971 127.75 8.06922 127.853 7.96949C127.957 7.86976 128.08 7.79307 128.215 7.74445C128.35 7.69504 128.494 7.67491 128.638 7.68541C128.781 7.69591 128.921 7.73679 129.047 7.80535C129.649 8.14079 130.295 8.39019 130.965 8.5463C132.25 8.96548 133.623 9.03555 134.944 8.7493H135.127C136.419 8.69008 137.672 8.29094 138.761 7.5922C140.202 6.6584 142.739 4.63855 143.44 1.5631L143.511 0.94395C143.543 0.698223 143.664 0.472768 143.851 0.310102C144.038 0.147435 144.278 0.0588034 144.526 0.0609053H199.559C199.828 0.0609053 200.087 0.167842 200.277 0.358191C200.467 0.548541 200.574 0.806711 200.574 1.07591C200.531 25.5072 190.804 48.925 173.525 66.1968C156.245 83.4686 132.823 93.1854 108.392 93.2176V93.2176ZM18.2294 2.03C18.5847 25.7083 28.2402 48.2964 45.1103 64.9153C61.9804 81.5341 84.7109 90.8497 108.392 90.8497C132.073 90.8497 154.803 81.5341 171.673 64.9153C188.543 48.2964 198.199 25.7083 198.554 2.03H145.409C144.563 5.05568 142.581 7.63763 139.877 9.2365C138.512 10.1176 136.942 10.6284 135.32 10.7184C133.702 11.064 132.023 10.9801 130.448 10.4748C129.984 10.365 129.529 10.2191 129.088 10.0383C128.905 10.4037 128.712 10.7692 128.509 11.1041C127.91 12.0895 127.194 12.9993 126.378 13.8142C126.359 13.8427 126.335 13.867 126.307 13.8852C125.901 14.2202 125.484 14.545 125.048 14.9002C124.673 15.2266 124.28 15.5316 123.871 15.8137L123.536 16.0066C122.588 16.4866 121.608 16.9004 120.602 17.2448L120.237 17.3464C119.167 17.5542 118.086 17.7033 116.999 17.7929H116.593C114.889 17.8103 113.2 17.4643 111.64 16.7779C111.519 16.9401 111.391 17.0959 111.254 17.2448C110.383 18.5636 109.197 19.6449 107.803 20.3914C106.458 21.2523 104.912 21.7457 103.317 21.8225C101.696 22.1662 100.015 22.0858 98.4347 21.5891V21.5891C97.8359 21.4064 95.613 20.4218 95.5115 20.3609C94.6125 19.7671 93.7577 19.109 92.9537 18.3918C92.6252 18.0399 92.32 17.667 92.0402 17.2753L91.5327 16.6156C91.0122 15.9797 90.547 15.3006 90.1422 14.5856L90.0813 14.4841C89.141 14.6888 88.1813 14.7909 87.2189 14.7885C85.5837 14.8424 83.9563 14.5389 82.4504 13.899C80.9445 13.2591 79.5964 12.2984 78.5001 11.0838C76.3779 8.58275 75.289 5.36677 75.4551 2.09091L18.2294 2.03Z" fill="#093F68"/>
<path d="M144.546 1.01499L144.445 1.72549C143.676 4.5168 141.857 6.90265 139.37 8.38389C138.13 9.18186 136.701 9.63715 135.228 9.70339C133.759 10.0354 132.228 9.96879 130.793 9.51054C130.036 9.32476 129.305 9.04159 128.621 8.66809C128.365 9.32991 128.053 9.96836 127.687 10.5763C127.105 11.4909 126.425 12.3385 125.657 13.1036C125.271 13.4284 124.865 13.7431 124.449 14.0374C124.076 14.3584 123.686 14.6599 123.282 14.9408L123.048 15.0727C122.155 15.5221 121.233 15.9121 120.288 16.24L119.993 16.3212C119.313 16.4836 117.608 16.6764 116.948 16.7373H116.603C114.767 16.7389 112.96 16.2818 111.346 15.4077C111.094 15.8128 110.805 16.1934 110.483 16.5445C109.704 17.7501 108.632 18.7384 107.367 19.4169C106.127 20.2149 104.698 20.6702 103.226 20.7364C101.752 21.065 100.217 20.9949 98.7798 20.5334C98.6174 20.5334 96.2119 19.5184 96.0596 19.3966C95.2463 18.8449 94.4667 18.245 93.7251 17.6001C93.309 17.1636 92.9943 16.6967 92.5985 16.1892C92.0309 15.5092 91.5216 14.7826 91.076 14.0171C90.9237 13.7532 90.7917 13.4792 90.6598 13.2153C89.5555 13.5383 88.4101 13.699 87.2595 13.6923C79.4136 13.6923 75.8713 7.03394 76.6122 0.99469H23.7307C23.7307 12.1179 25.9216 23.1322 30.1782 33.4087C34.4349 43.6851 40.674 53.0226 48.5393 60.8879C56.4046 68.7532 65.742 74.9922 76.0185 79.2489C86.295 83.5056 97.3093 85.6964 108.432 85.6964C119.556 85.6964 130.57 83.5056 140.846 79.2489C151.123 74.9922 160.46 68.7532 168.326 60.8879C176.191 53.0226 182.43 43.6851 186.687 33.4087C190.943 23.1322 193.134 12.1179 193.134 0.99469L144.546 1.01499Z" fill="#F56132"/>
<path d="M108.392 86.7419C85.6639 86.715 63.8745 77.6745 47.8034 61.6034C31.7323 45.5323 22.6918 23.7429 22.6649 1.015C22.6649 0.745805 22.7719 0.487635 22.9622 0.297286C23.1526 0.106936 23.4108 0 23.6799 0H76.5716C76.7157 0.000182493 76.8581 0.0310531 76.9894 0.0905564C77.1206 0.15006 77.2377 0.236835 77.3328 0.345104C77.4282 0.453712 77.4992 0.581428 77.5413 0.719712C77.5833 0.857996 77.5953 1.00366 77.5764 1.14695C77.3694 2.66165 77.4799 4.20287 77.901 5.6725C78.3222 7.14213 79.0447 8.50798 80.0226 9.6831C80.9293 10.6825 82.0426 11.4725 83.2853 11.9983C84.528 12.5241 85.8703 12.7732 87.2189 12.7281C88.27 12.7354 89.3165 12.5884 90.3248 12.2917C90.5535 12.2234 90.7989 12.2379 91.0179 12.3325C91.2369 12.4272 91.4156 12.596 91.5226 12.8093L91.9285 13.5908C92.2787 14.2042 92.683 14.785 93.1364 15.3265L93.6642 16.0167C93.897 16.3417 94.1478 16.6534 94.4153 16.9505C95.0915 17.5236 95.7961 18.0622 96.5265 18.5644C96.7295 18.6659 98.7493 19.5185 99.0234 19.5794C100.296 19.9933 101.656 20.0564 102.962 19.7621H103.134C104.432 19.7104 105.692 19.307 106.778 18.5948C107.918 17.9962 108.886 17.1157 109.59 16.037C109.621 15.9886 109.659 15.9443 109.701 15.905C109.979 15.5883 110.231 15.2488 110.452 14.89C110.59 14.6764 110.804 14.5223 111.05 14.4584C111.296 14.3945 111.557 14.4254 111.782 14.545C113.249 15.3439 114.892 15.7627 116.563 15.7629H116.816C117.527 15.702 119.161 15.5092 119.75 15.3671L119.973 15.3062C120.863 15 121.731 14.6338 122.571 14.21L122.764 14.0983C123.079 13.875 123.444 13.5908 123.779 13.2965C124.114 13.0021 124.591 12.6875 124.957 12.383C125.64 11.6848 126.243 10.9119 126.753 10.079C127.095 9.52186 127.384 8.93398 127.616 8.323C127.669 8.18971 127.75 8.06922 127.853 7.96949C127.957 7.86976 128.08 7.79307 128.215 7.74445C128.35 7.69504 128.494 7.67491 128.637 7.68541C128.781 7.69591 128.921 7.73679 129.047 7.80535C129.649 8.14079 130.295 8.39019 130.965 8.5463C132.25 8.96548 133.623 9.03555 134.944 8.7493H135.127C136.419 8.69008 137.672 8.29094 138.761 7.5922C140.202 6.6584 142.739 4.63855 143.44 1.5631L143.511 0.94395C143.543 0.698223 143.664 0.472768 143.851 0.310102C144.038 0.147435 144.278 0.0588034 144.526 0.0609053H193.083C193.353 0.0609053 193.611 0.167842 193.801 0.358191C193.991 0.548541 194.098 0.806711 194.098 1.07591C194.055 23.7898 185.011 45.5605 168.946 61.6178C152.881 77.6752 131.106 86.7097 108.392 86.7419V86.7419ZM24.7051 2.03C25.0473 23.9994 34.0148 44.9531 49.6718 60.3683C65.3289 75.7834 86.4198 84.4235 108.392 84.4235C130.364 84.4235 151.455 75.7834 167.112 60.3683C182.769 44.9531 191.736 23.9994 192.079 2.03H145.389C144.543 5.05568 142.561 7.63763 139.857 9.2365C138.492 10.1176 136.921 10.6284 135.299 10.7184C133.682 11.064 132.002 10.9801 130.428 10.4748C129.963 10.365 129.509 10.2191 129.067 10.0383C128.885 10.4037 128.692 10.7692 128.489 11.1041C127.889 12.0895 127.174 12.9993 126.357 13.8142C126.339 13.8427 126.315 13.867 126.286 13.8852C125.88 14.2202 125.464 14.545 125.028 14.9002C124.653 15.2266 124.26 15.5316 123.85 15.8137L123.515 16.0066C122.567 16.4866 121.587 16.9004 120.582 17.2448L120.217 17.3464C119.146 17.5542 118.065 17.7033 116.979 17.7929H116.573C114.868 17.8103 113.18 17.4643 111.62 16.7779C111.499 16.9401 111.37 17.0959 111.234 17.2448C110.362 18.5636 109.176 19.6449 107.783 20.3914C106.438 21.2523 104.891 21.7457 103.297 21.8225C101.676 22.1662 99.9946 22.0858 98.4144 21.5891V21.5891C97.8155 21.4064 95.5927 20.4218 95.4912 20.3609C94.5922 19.7671 93.7374 19.109 92.9334 18.3918C92.6049 18.0399 92.2997 17.667 92.0199 17.2753L91.5124 16.6156C90.9919 15.9797 90.5267 15.3006 90.1218 14.5856L90.0609 14.4841C89.1207 14.6888 88.1609 14.7909 87.1986 14.7885C85.5633 14.8424 83.936 14.5389 82.4301 13.899C80.9242 13.2591 79.5761 12.2984 78.4798 11.0838C76.3576 8.58275 75.2687 5.36677 75.4348 2.09091L24.7051 2.03Z" fill="#093F68"/>
<path d="M50.3948 36.9359C50.2186 36.9358 50.0455 36.89 49.8925 36.8028C49.7394 36.7156 49.6117 36.59 49.5219 36.4385C49.4514 36.3247 49.4042 36.198 49.383 36.0659C49.3617 35.9337 49.3668 35.7987 49.3979 35.6685C49.429 35.5383 49.4856 35.4155 49.5643 35.3073C49.6431 35.1991 49.7425 35.1075 49.8568 35.0378L56.434 31.0387C56.6631 30.8997 56.9378 30.8569 57.1983 30.9196C57.4588 30.9824 57.6839 31.1456 57.8246 31.3737C57.895 31.4875 57.9422 31.6141 57.9635 31.7463C57.9848 31.8785 57.9797 32.0135 57.9485 32.1437C57.9174 32.2739 57.8608 32.3966 57.7821 32.5049C57.7033 32.6131 57.6039 32.7047 57.4896 32.7744L50.9124 36.7735C50.7578 36.8736 50.5789 36.9297 50.3948 36.9359V36.9359Z" fill="#093F68"/>
<path d="M169.424 35.5047C169.19 35.5028 168.964 35.4204 168.784 35.2713L162.491 30.1252C162.285 29.9548 162.155 29.71 162.128 29.4439C162.102 29.1779 162.181 28.912 162.349 28.7042C162.434 28.6007 162.538 28.5149 162.656 28.4517C162.773 28.3885 162.902 28.3492 163.035 28.336C163.168 28.3228 163.303 28.3359 163.43 28.3747C163.558 28.4136 163.677 28.4772 163.78 28.5621L170.063 33.698C170.167 33.7825 170.253 33.8866 170.316 34.0043C170.379 34.1221 170.418 34.2511 170.431 34.3841C170.445 34.517 170.432 34.6513 170.393 34.7792C170.354 34.907 170.29 35.026 170.205 35.1292C170.111 35.2456 169.992 35.3397 169.857 35.4046C169.722 35.4695 169.574 35.5037 169.424 35.5047Z" fill="#093F68"/>
<path d="M154.716 52.6785C154.541 52.6795 154.369 52.6352 154.216 52.5498C154.063 52.4644 153.935 52.3409 153.844 52.1913L148.687 43.645C148.604 43.5302 148.545 43.399 148.516 43.2601C148.486 43.1213 148.486 42.9777 148.515 42.8387C148.544 42.6998 148.602 42.5685 148.686 42.4534C148.769 42.3383 148.875 42.2419 148.998 42.1705C149.121 42.0992 149.257 42.0543 149.398 42.039C149.54 42.0236 149.682 42.0381 149.818 42.0814C149.953 42.1247 150.078 42.1959 150.184 42.2904C150.29 42.3849 150.375 42.5006 150.433 42.63L155.589 51.1865C155.727 51.4167 155.769 51.6924 155.704 51.953C155.639 52.2136 155.474 52.438 155.244 52.577C155.081 52.6576 154.898 52.6927 154.716 52.6785Z" fill="#093F68"/>
<path d="M135.797 61.9556C135.564 61.9618 135.335 61.8875 135.15 61.7452C134.966 61.6028 134.835 61.4011 134.782 61.174L132.64 51.6635C132.61 51.5335 132.606 51.3989 132.628 51.2673C132.65 51.1358 132.698 51.0098 132.768 50.8967C132.839 50.7836 132.931 50.6855 133.04 50.6081C133.149 50.5306 133.271 50.4754 133.401 50.4455C133.532 50.4156 133.667 50.4118 133.8 50.4344C133.932 50.4571 134.058 50.5056 134.171 50.5774C134.284 50.6491 134.382 50.7425 134.459 50.8523C134.536 50.9621 134.591 51.086 134.619 51.2169L136.771 60.6868C136.801 60.8168 136.806 60.9514 136.784 61.083C136.762 61.2146 136.714 61.3405 136.643 61.4536C136.572 61.5668 136.48 61.6648 136.371 61.7423C136.263 61.8197 136.14 61.8749 136.01 61.9048C135.941 61.9302 135.87 61.9473 135.797 61.9556Z" fill="#093F68"/>
<path d="M113.842 70.4004H113.721C113.454 70.3674 113.212 70.2304 113.047 70.0193C112.881 69.8081 112.806 69.5401 112.838 69.2738L113.974 59.479C114.007 59.2098 114.145 58.9645 114.358 58.797C114.571 58.6295 114.842 58.5535 115.111 58.5858C115.38 58.6181 115.626 58.756 115.793 58.9692C115.961 59.1824 116.037 59.4534 116.004 59.7226L114.857 69.5072C114.827 69.7548 114.707 69.9827 114.52 70.1474C114.333 70.3121 114.092 70.4022 113.842 70.4004Z" fill="#093F68"/>
<path d="M69.8218 52.4857C69.6114 52.4873 69.4057 52.4234 69.2331 52.303C69.1234 52.226 69.0299 52.1281 68.9582 52.0149C68.8865 51.9017 68.8379 51.7753 68.8152 51.6432C68.7926 51.5111 68.7963 51.3758 68.8262 51.2452C68.8562 51.1145 68.9117 50.9911 68.9895 50.882L74.704 42.762C74.7809 42.6522 74.8788 42.5587 74.9921 42.487C75.1053 42.4153 75.2316 42.3667 75.3637 42.344C75.4959 42.3214 75.6311 42.3251 75.7618 42.3551C75.8925 42.385 76.0159 42.4405 76.125 42.5184C76.3438 42.6736 76.4923 42.9092 76.5379 43.1735C76.5836 43.4379 76.5227 43.7096 76.3686 43.9292L70.6542 52.0492C70.5609 52.1837 70.4365 52.2936 70.2916 52.3696C70.1466 52.4456 69.9855 52.4854 69.8218 52.4857V52.4857Z" fill="#093F68"/>
<path d="M43.5943 13.4995C43.3251 13.5318 43.0541 13.4559 42.8409 13.2884C42.6277 13.1208 42.4898 12.8755 42.4574 12.6063C42.4251 12.3371 42.5011 12.0661 42.6686 11.8529C42.8361 11.6397 43.0815 11.5018 43.3507 11.4695L49.2072 10.0384C49.3384 10.0004 49.476 9.98941 49.6116 10.0059C49.7472 10.0224 49.878 10.0661 49.9964 10.1344C50.1147 10.2027 50.218 10.2941 50.3001 10.4033C50.3822 10.5125 50.4414 10.6371 50.4743 10.7697C50.5071 10.9023 50.5128 11.0402 50.491 11.175C50.4693 11.3099 50.4206 11.439 50.3477 11.5545C50.2749 11.6701 50.1795 11.7698 50.0673 11.8476C49.955 11.9255 49.8282 11.9798 49.6944 12.0075L43.8379 13.4386C43.7595 13.4689 43.6777 13.4894 43.5943 13.4995V13.4995Z" fill="#093F68"/>
<path d="M177.818 15.8746C177.717 15.8899 177.614 15.8899 177.513 15.8746L170.693 13.6822C170.558 13.6487 170.431 13.5878 170.321 13.5033C170.21 13.4188 170.118 13.3126 170.051 13.1911C169.983 13.0697 169.941 12.9356 169.927 12.7973C169.914 12.659 169.929 12.5193 169.971 12.3869C170.014 12.2546 170.083 12.1323 170.174 12.0278C170.266 11.9233 170.378 11.8388 170.504 11.7794C170.63 11.72 170.766 11.6871 170.905 11.6827C171.044 11.6783 171.182 11.7024 171.312 11.7537L178.132 13.9461C178.362 14.0214 178.556 14.1758 178.682 14.3817C178.808 14.5876 178.856 14.8315 178.818 15.0697C178.78 15.3079 178.659 15.5248 178.475 15.6816C178.292 15.8384 178.059 15.9248 177.818 15.9253V15.8746Z" fill="#093F68"/>
<path d="M93.5525 62.3921C93.4349 62.3919 93.3181 62.3713 93.2074 62.3311C92.9545 62.2395 92.7482 62.0512 92.634 61.8076C92.5198 61.564 92.507 61.285 92.5984 61.0319L96.3336 50.6992C96.3762 50.5704 96.4441 50.4513 96.5334 50.3492C96.6228 50.247 96.7317 50.1638 96.8537 50.1045C96.9758 50.0452 97.1085 50.0109 97.244 50.0038C97.3796 49.9966 97.5151 50.0167 97.6427 50.0629C97.7704 50.109 97.8874 50.1803 97.987 50.2725C98.0866 50.3647 98.1667 50.4759 98.2225 50.5996C98.2784 50.7233 98.3089 50.8569 98.3122 50.9926C98.3155 51.1282 98.2916 51.2632 98.2418 51.3894L94.5067 61.7222C94.4357 61.9183 94.3061 62.0879 94.1354 62.2077C93.9646 62.3276 93.7611 62.392 93.5525 62.3921V62.3921Z" fill="#093F68"/>
<path d="M74.3995 28.6027C74.2628 28.6022 74.1276 28.574 74.002 28.52C73.8764 28.4659 73.763 28.387 73.6687 28.288C73.4796 28.0979 73.3735 27.8406 73.3735 27.5725C73.3735 27.3043 73.4796 27.0471 73.6687 26.8569L79.0076 21.7819C79.1042 21.6899 79.218 21.6179 79.3425 21.5699C79.467 21.5219 79.5997 21.4989 79.7331 21.5022C79.8664 21.5055 79.9979 21.535 80.1198 21.5891C80.2418 21.6432 80.3518 21.7208 80.4438 21.8174C80.5358 21.9141 80.6078 22.0279 80.6558 22.1523C80.7038 22.2768 80.7268 22.4095 80.7235 22.5429C80.7202 22.6762 80.6907 22.8077 80.6366 22.9296C80.5825 23.0516 80.5049 23.1617 80.4083 23.2536L75.0694 28.3286C74.8874 28.4992 74.6489 28.5968 74.3995 28.6027Z" fill="#093F68"/>
<path d="M152.138 28.6027C152.005 28.6035 151.872 28.5779 151.749 28.5274C151.625 28.4768 151.513 28.4024 151.418 28.3083L146.84 23.6698C146.675 23.4745 146.59 23.224 146.601 22.9686C146.613 22.7132 146.721 22.4715 146.903 22.292C147.085 22.1125 147.328 22.0083 147.584 22.0003C147.839 21.9923 148.088 22.081 148.281 22.2488L152.859 26.8772C152.999 27.0197 153.093 27.2002 153.131 27.3961C153.169 27.5921 153.148 27.7948 153.071 27.9789C152.994 28.163 152.864 28.3204 152.699 28.4313C152.533 28.5423 152.338 28.6019 152.138 28.6027V28.6027Z" fill="#093F68"/>
<path d="M121.272 44.6498C121.003 44.6498 120.745 44.5429 120.554 44.3526C120.364 44.1622 120.257 43.904 120.257 43.6348V35.9209C120.257 35.6517 120.364 35.3935 120.554 35.2031C120.745 35.0128 121.003 34.9059 121.272 34.9059C121.541 34.9059 121.8 35.0128 121.99 35.2031C122.18 35.3935 122.287 35.6517 122.287 35.9209V43.6348C122.287 43.904 122.18 44.1622 121.99 44.3526C121.8 44.5429 121.541 44.6498 121.272 44.6498Z" fill="#093F68"/>
<path d="M93.8672 40.5696C93.6895 40.5685 93.5153 40.5208 93.3618 40.4313C93.2084 40.3418 93.0811 40.2135 92.9928 40.0594C92.9044 39.9053 92.858 39.7307 92.8583 39.553C92.8586 39.3754 92.9055 39.2009 92.9943 39.0471L96.0393 33.6777C96.1028 33.5564 96.1901 33.4492 96.296 33.3625C96.402 33.2759 96.5244 33.2115 96.6559 33.1734C96.7873 33.1352 96.9252 33.1241 97.0611 33.1406C97.197 33.1571 97.3281 33.2009 97.4466 33.2694C97.5651 33.3379 97.6686 33.4297 97.7507 33.5392C97.8328 33.6487 97.892 33.7737 97.9245 33.9067C97.9571 34.0397 97.9624 34.1778 97.9402 34.3129C97.918 34.448 97.8687 34.5772 97.7952 34.6927L94.6995 40.0722C94.6133 40.218 94.4919 40.3398 94.3466 40.4267C94.2012 40.5136 94.0364 40.5627 93.8672 40.5696V40.5696Z" fill="#093F68"/>
<path d="M62.2297 17.1535C62.0042 17.1524 61.7855 17.0762 61.6081 16.937C61.4307 16.7978 61.3047 16.6034 61.25 16.3847C61.1953 16.1659 61.215 15.9352 61.306 15.7288C61.397 15.5225 61.5542 15.3524 61.7526 15.2453L66.6652 12.6266C66.7832 12.5528 66.915 12.504 67.0526 12.4833C67.1902 12.4626 67.3306 12.4704 67.4651 12.5063C67.5996 12.5421 67.7252 12.6052 67.8342 12.6917C67.9433 12.7781 68.0334 12.8861 68.0989 13.0088C68.1645 13.1316 68.2041 13.2665 68.2153 13.4052C68.2265 13.5439 68.2091 13.6834 68.1641 13.8151C68.1192 13.9468 68.0476 14.0678 67.9538 14.1707C67.8601 14.2735 67.7462 14.356 67.6193 14.413L62.7168 17.0622C62.5645 17.1324 62.3971 17.1638 62.2297 17.1535Z" fill="#093F68"/>
</svg>
